<svg width="100" height="60" viewBox="0 0 100 60" fill="none" xmlns="http://www.w3.org/2000/svg">
<circle cx="50" cy="30" r="29.5" stroke="#FDB009"/>
<circle cx="70" cy="30" r="29.5" stroke="#FDB009"/>
<circle cx="30" cy="30" r="29.5" stroke="#FDB009"/>
<path d="M50 0L50.882 26.6807C50.8962 27.1102 51.4097 27.3229 51.7234 27.0292L71.2132 8.7868L52.9708 28.2766C52.6771 28.5903 52.8898 29.1038 53.3193 29.118L80 30L53.3193 30.882C52.8898 30.8962 52.6771 31.4097 52.9708 31.7234L71.2132 51.2132L51.7234 32.9708C51.4097 32.6771 50.8962 32.8898 50.882 33.3193L50 60L49.118 33.3193C49.1038 32.8898 48.5903 32.6771 48.2766 32.9708L28.7868 51.2132L47.0292 31.7234C47.3229 31.4097 47.1102 30.8962 46.6807 30.882L20 30L46.6807 29.118C47.1102 29.1038 47.3229 28.5903 47.0292 28.2766L28.7868 8.7868L48.2766 27.0292C48.5903 27.3229 49.1038 27.1102 49.118 26.6807L50 0Z" fill="#FDB009"/>
</svg>
